<svg width="120" height="72" fill="none" xmlns="http://www.w3.org/2000/svg">
    <path d="M35.074 14.8c-.038-.193-.038-.423-.038-.654 0-5.26 4.262-9.562 9.56-9.562 1.536 0 2.957.461 4.3 1.037 1.306.538 1.92 0 2.266-.384A14.744 14.744 0 0162.258.207c8.14 0 14.782 6.605 14.782 14.784 0 .653-.039 1.306-.115 1.92-.192 1.613.73 1.844 1.19 2.074a13.373 13.373 0 017.986 12.25c0 7.412-5.99 13.403-13.4 13.403H40.603c-8.101 0-14.628-6.567-14.628-14.631a14.623 14.623 0 017.794-12.942c.499-.269 1.536-.614 1.305-2.266z" fill="#C8E6FA"/>
    <path fill-rule="evenodd" clip-rule="evenodd" d="M39.292 62.873c-2.448 0-4.443 2.004-4.443 4.46 0 2.458 1.995 4.461 4.443 4.461 2.448 0 4.443-2.003 4.443-4.46s-1.995-4.46-4.443-4.46z" fill="#994916"/>
    <path fill-rule="evenodd" clip-rule="evenodd" d="M41.504 67.333a2.233 2.233 0 01-2.23 2.238 2.233 2.233 0 01-2.229-2.238c0-1.236.998-2.238 2.23-2.238 1.231.016 2.229 1.017 2.229 2.238z" fill="#fff"/>
    <path fill-rule="evenodd" clip-rule="evenodd" d="M7.578 62.873c-2.448 0-4.443 2.004-4.443 4.46 0 2.458 1.995 4.461 4.443 4.461 2.448 0 4.443-2.003 4.443-4.46s-1.995-4.46-4.443-4.46z" fill="#994916"/>
    <path fill-rule="evenodd" clip-rule="evenodd" d="M9.792 67.333a2.233 2.233 0 01-2.23 2.238 2.233 2.233 0 01-2.229-2.238c0-1.236.998-2.238 2.23-2.238 1.231.016 2.229 1.017 2.229 2.238z" fill="#fff"/>
    <path d="M45.855 58.413c-1.512-1.815-2.385-2.77-4.505-4.977-3.633-3.803-4.553-5.148-10.072-5.148h-7.764c-3.695 0-5.457 1.377-7.312 3.224l-2.93 2.942c-.999.986-1.575 1.252-3.852 1.44-4.365.36-6.579 1.377-7.904 3.443.592.422.998 1.11.998 1.909a2.31 2.31 0 01-2.152 2.316c0 .83.094 1.675.328 2.394.202.61.56.94.56.94.469.438.952.172.983-.298l.078-.36c.499-2.473 2.682-4.335 5.285-4.335a5.42 5.42 0 015.41 5.415c0 .657.296.892 1.014.892h18.864c.592 0 .935-.14.982-.923 0 0 .063-.689.125-1.018.483-2.488 2.681-4.382 5.3-4.382a5.392 5.392 0 015.27 4.242c.078.375.11.798.11.798.046.594.483.767 1.028.579 0 0 .905-.25 1.637-.97.811-.783 1.076-1.879 1.076-2.974 0-2.379-1.122-3.443-2.557-5.149z" fill="#FFB900"/>
    <path d="M2.496 61.246c0-.783-.39-1.487-.998-1.91-.265.407-.499.861-.701 1.346-.28.673-.468 1.753-.468 2.88a2.312 2.312 0 002.167-2.316z" fill="#FFE57E"/>
    <path d="M27.161 51.777c0-.595-.483-1.095-1.091-1.095h-3.976c-1.31 0-2.354.532-3.118 1.299 0 0-2.011 2.19-2.728 3.02-.717.814-.5 1.91.67 1.91h9.152c.608 0 1.091-.486 1.091-1.096v-4.038zM29.36 51.98c0-.594.482-1.173 1.075-1.267 0 0 2.136-.344 4.474.767 2.838 1.33 3.368 4.35 3.368 4.35.125.595-.25 1.065-.858 1.065l-6.984.015a1.097 1.097 0 01-1.091-1.095V51.98h.015z" fill="#fff"/>
    <path d="M69.92 29.15c-.127.064-.253.16-.348.255l-7.783 11.051-7.782 11.02c-.127.222-.253.572-.253.827v19.045c0 .255.19.446.443.446h31.73V51.857L69.92 29.15z" fill="#E5007E"/>
    <path d="M62.613 64.947c0 .096-.095.191-.19.191h-2.562c-.095 0-.19-.096-.19-.191v-2.58c0-.095.095-.19.19-.19h2.562c.095 0 .19.095.19.19v2.58zM62.613 60.648c0 .095-.095.19-.19.19h-2.562c-.095 0-.19-.095-.19-.19v-2.58c0-.096.095-.191.19-.191h2.562c.095 0 .19.095.19.191v2.58zM66.883 64.947c0 .096-.094.191-.19.191h-2.562c-.095 0-.19-.096-.19-.191v-2.58c0-.095.095-.19.19-.19h2.563c.095 0 .19.095.19.19v2.58zM66.883 60.648c0 .095-.094.19-.19.19h-2.562c-.095 0-.19-.095-.19-.19v-2.58c0-.096.095-.191.19-.191h2.563c.095 0 .19.095.19.191v2.58zM69.192 51.985c0 .095-.095.19-.19.19H66.44c-.095 0-.19-.095-.19-.19v-2.58c0-.096.095-.191.19-.191h2.562c.095 0 .19.095.19.191v2.58zM69.192 47.685c0 .096-.095.191-.19.191H66.44c-.095 0-.19-.095-.19-.19v-2.58c0-.096.095-.191.19-.191h2.562c.095 0 .19.095.19.19v2.58zM70.523 45.106c0-.096.095-.191.19-.191h2.563c.095 0 .19.095.19.19v2.58c0 .096-.095.191-.19.191h-2.563c-.095 0-.19-.095-.19-.19v-2.58zM70.523 51.985v-2.58c0-.096.095-.191.19-.191h2.563c.095 0 .19.095.19.191v2.58c0 .095-.095.19-.19.19h-2.563c-.095 0-.19-.095-.19-.19zM75.74 64.947c0 .096-.095.191-.19.191h-2.562c-.095 0-.19-.096-.19-.191v-2.58c0-.095.095-.19.19-.19h2.562c.095 0 .19.095.19.19v2.58zM75.74 60.648c0 .095-.095.19-.19.19h-2.562c-.095 0-.19-.095-.19-.19v-2.58c0-.096.095-.191.19-.191h2.562c.095 0 .19.095.19.191v2.58zM80.013 64.947c0 .096-.095.191-.19.191h-2.562c-.095 0-.19-.096-.19-.191v-2.58c0-.095.095-.19.19-.19h2.563c.094 0 .19.095.19.19v2.58zM80.013 60.648c0 .095-.095.19-.19.19h-2.562c-.095 0-.19-.095-.19-.19v-2.58c0-.096.095-.191.19-.191h2.563c.094 0 .19.095.19.191v2.58z" fill="#fff"/>
    <path d="M94.468 51.858c.253 0 .57-.16.696-.383l7.529-10.668c.159-.191.38-.191.507 0l7.529 10.668c.158.192.474.383.696.383h8.447a1.374 1.374 0 00-.159-.383l-7.782-11.019-7.782-11.019c-.127-.19-.475-.382-.696-.382H70.299a.838.838 0 00-.38.096l16.04 22.707h8.509z" fill="#8B0259"/>
    <path d="M119.905 51.858h-8.447c-.253 0-.57-.16-.696-.382l-7.529-10.67c-.159-.19-.38-.19-.507 0l-7.529 10.67c-.158.19-.474.382-.696.382h-8.51v19.936H119.557a.433.433 0 00.442-.446V52.304a1.26 1.26 0 00-.094-.446z" fill="#F3A9CB"/>
    <path d="M95.734 64.947c0 .096-.095.191-.19.191h-2.562c-.095 0-.19-.096-.19-.191v-2.58c0-.095.095-.19.19-.19h2.562c.095 0 .19.095.19.19v2.58zM95.734 60.648c0 .095-.095.19-.19.19h-2.562c-.095 0-.19-.095-.19-.19v-2.58c0-.096.095-.191.19-.191h2.562c.095 0 .19.095.19.191v2.58zM100.003 64.947c0 .096-.095.191-.19.191H97.25c-.094 0-.19-.096-.19-.191v-2.58c0-.095.096-.19.19-.19h2.563c.095 0 .19.095.19.19v2.58zM100.003 60.648c0 .095-.095.19-.19.19H97.25c-.094 0-.19-.095-.19-.19v-2.58c0-.096.096-.191.19-.191h2.563c.095 0 .19.095.19.191v2.58zM108.863 64.947c0 .096-.095.191-.19.191h-2.562c-.095 0-.19-.096-.19-.191v-2.58c0-.095.095-.19.19-.19h2.562c.095 0 .19.095.19.19v2.58zM108.863 60.648c0 .095-.095.19-.19.19h-2.562c-.095 0-.19-.095-.19-.19v-2.58c0-.096.095-.191.19-.191h2.562c.095 0 .19.095.19.191v2.58zM113.134 64.947c0 .096-.094.191-.189.191h-2.563c-.095 0-.19-.096-.19-.191v-2.58c0-.095.095-.19.19-.19h2.563c.095 0 .189.095.189.19v2.58zM113.134 60.648c0 .095-.094.19-.189.19h-2.563c-.095 0-.19-.095-.19-.19v-2.58c0-.096.095-.191.19-.191h2.563c.095 0 .189.095.189.191v2.58z" fill="#fff"/>
</svg>