<svg width="115" height="72" fill="none" xmlns="http://www.w3.org/2000/svg">
  <path d="M113.405 30.467c-1.774-5.815-6.681-10.15-12.84-10.361-.418 0-.836-.106-1.358-.106-5.115 0-9.604 2.643-12.318 6.661-.104.106-.209.318-.418.318s-.417-.212-.417-.318c-2.714-4.018-7.204-6.66-12.318-6.66-.42 0-.836 0-1.358.105-5.324.211-9.709 3.384-11.901 8.036-1.566 3.171-1.775 6.237-1.775 7.612 0 4.758 1.253 9.305 3.759 13.534 3.653 6.132 9.812 11.63 16.18 16.493 3.655 2.856 6.055 4.23 7.83 4.23 1.775 0 3.968-1.48 7.83-4.23 6.472-4.757 12.632-10.36 16.182-16.493 2.506-4.23 3.758-8.776 3.758-13.534 0-1.373-.209-3.278-.836-5.287z" fill="#E6007E"/>
  <path d="M80.497 33.604c-.104-1.057-.94-1.903-1.88-2.008H75.07c-2.402 0-3.341-2.433-3.759-3.384-.417-.952-2.193-3.806-2.506-4.335-1.252-2.115-2.4-3.594-1.67-6.025.73-2.54 2.714-4.442 5.116-5.077.417-.105.626-.105.626-.105.418 0 .522-.423.418-.74 0 0-.104-.212-.418-.635-1.357-2.326-3.55-4.124-6.263-4.863-5.012-1.48-10.232 1.057-12.529 5.603l-.313.635c-.103.317-.521.528-.94.423 0 0-.207-.106-.625-.212-2.61-.74-5.43-1.163-8.352-1.27H42.81c-10.44 0-19.627 4.653-25.265 11.632-.313.423-1.46 2.115-1.878 2.431-.358.28-.8.43-1.253.423-.313 0-.626 0-.94-.105-.208 0-.208-.318 0-.423 1.775-1.057 2.82-3.171 2.715-5.286-.21-3.067-2.715-5.287-5.638-4.97-1.461.106-2.82.846-3.758 2.01-.73.95-1.148 2.007-1.253 3.277 0 .21-.209.528-.417.105-.36-.5-.674-1.03-.94-1.585-.522-1.27-1.462-1.904-2.402-1.586-1.252.422-1.043 2.114-.73 3.066 1.252 3.383 3.445 4.862 5.95 5.604.21.105.419.21.523.316l.94.953c.94.845 2.4 1.69 4.49 2.114.312 0 .834.106.52.952-.94 2.748-1.566 5.71-1.566 8.669 0 8.776 4.49 15.543 9.396 19.983.21.106.73.636.73.636.21.21.314.633.106 1.163-.105.21-1.671 4.017-1.671 4.017-.626 1.585.104 3.383 1.67 4.018l6.264 2.643a3.022 3.022 0 003.967-1.692s1.148-2.749 1.462-3.594c.104-.318.417-.423.73-.423l.21.105c1.983.423 5.22.74 7.516.846h.626c1.88 0 4.698-.211 6.264-.423h.313c.418-.106.627.105.73.317.106.211 1.358 3.279 1.358 3.279a3.03 3.03 0 002.797 1.92c.401.002.8-.076 1.17-.229l6.264-2.644c1.566-.634 2.297-2.431 1.67-4.018 0 0-1.148-2.643-1.357-3.382-.104-.318 0-.635.21-.742l.208-.105c1.357-1.056 3.34-2.75 4.803-4.44.313-.424.626-.74.835-1.057 2.4-3.279 3.653-6.768 6.993-6.768h3.55c.836-.21 1.567-.845 1.775-1.692V33.603l-.001.001zm-69.11-10.89c-1.045.529-1.88 0-2.089-.846-.313-1.163.21-2.431 1.357-2.75 1.045-.316 2.089.424 2.089 1.587-.105.953-.73 1.691-1.358 2.01z" fill="#009EE2"/>
  <path d="M64.732 32.653a2.203 2.203 0 002.192-2.221 2.21 2.21 0 00-2.192-2.22 2.203 2.203 0 00-2.192 2.22c0 1.226.98 2.22 2.192 2.22zm-34.97-14.591c-.105-.423.104-.846.522-1.057 0 0 .417-.211.94-.423a32.04 32.04 0 0111.796-2.22h.94c1.044 0 2.087.106 3.235.21.418.107.522.107.522.107.418.105.731.422.731.845s-.104.953-.104 1.375c0 .423-.418.635-.835.635 0 0-2.088-.318-3.55-.318h-.939c-3.759 0-7.412.74-10.754 2.01-.625.21-1.043.422-1.043.422-.417.21-.835 0-.94-.423l-.521-1.163z" fill="#1E6E32"/>
  <path d="M41.869.722c-4.801-2.008-10.23.317-12.318 5.18-1.566 3.702-.522 7.826 2.087 10.469.836.846 1.775 1.48 2.924 2.009 2.714-.741 5.533-1.163 8.352-1.163h1.044c.94-.74 1.774-1.586 2.4-2.644.21-.423.522-.845.627-1.374 1.983-4.864-.21-10.467-5.116-12.477z" fill="#FFCB00"/>
  <path d="M41.452 1.99a8.287 8.287 0 00-3.132-.633c-3.34 0-6.264 2.008-7.515 5.074a8.078 8.078 0 000 6.239c.52 1.268 1.356 2.326 2.295 3.172.627.529 1.253.952 2.089 1.268.73.317 1.462.529 2.191.529 1.253-.21 2.506-.423 3.76-.423 1.46-.529 2.714-1.48 3.652-2.855.419-.528.731-1.163.94-1.691 1.775-4.23-.209-8.987-4.279-10.678l-.001-.001zm3.237 10.258c-.313.845-.835 1.584-1.357 2.22-1.253 1.373-3.028 2.114-4.908 2.114-.94 0-1.774-.211-2.61-.53-.312-.105-.625-.316-.94-.528-1.25-.74-2.19-1.903-2.713-3.277a6.647 6.647 0 010-5.286 6.82 6.82 0 012.514-3.156 6.802 6.802 0 013.854-1.18c.94 0 1.775.21 2.61.529 3.34 1.374 5.011 5.498 3.55 9.094z" fill="#FFE57E"/>
  <path d="M35.815 10.237c-.314.953.104 1.903 1.044 2.326.94.424 1.88.107 2.296-.951.417-1.057-.105-1.903-1.044-2.326-.627-.21-1.252-.21-1.67 0l-1.253-1.163 2.923-4.018 4.698 2.01-.626 1.373-3.655-1.585-1.46 2.008c.522-.21 1.252-.21 1.878.106 1.67.74 2.506 2.327 1.775 4.123-.626 1.693-2.506 2.538-4.49 1.693-1.88-.74-2.609-2.538-2.191-4.019l1.775.423z" fill="#FFE57E"/>
  <path d="M64.732 32.653a2.203 2.203 0 002.192-2.221 2.21 2.21 0 00-2.192-2.22 2.203 2.203 0 00-2.192 2.22c0 1.226.98 2.22 2.192 2.22zm-34.97-14.591c-.105-.423.104-.846.522-1.057 0 0 .417-.211.94-.423a32.04 32.04 0 0111.796-2.22h.94c1.044 0 2.087.106 3.235.21.418.107.522.107.522.107.418.105.731.422.731.845s-.104.953-.104 1.375c0 .423-.418.635-.835.635 0 0-2.088-.318-3.55-.318h-.939c-3.759 0-7.412.74-10.754 2.01-.625.21-1.043.422-1.043.422-.417.21-.835 0-.94-.423l-.521-1.163z" fill="#0A4682"/>
  <path d="M41.869.722c-4.801-2.008-10.23.317-12.318 5.18-1.566 3.702-.522 7.826 2.087 10.469.836.846 1.775 1.48 2.924 2.009 2.714-.741 5.533-1.163 8.352-1.163h1.044c.94-.74 1.774-1.586 2.4-2.644.21-.423.522-.845.627-1.374 1.983-4.864-.21-10.467-5.116-12.477z" fill="#FFB900"/>
  <path d="M41.452 1.99a8.287 8.287 0 00-3.132-.633c-3.34 0-6.264 2.008-7.515 5.074a8.078 8.078 0 000 6.239c.52 1.268 1.356 2.326 2.295 3.172.627.529 1.253.952 2.089 1.268.73.317 1.462.529 2.191.529 1.253-.21 2.506-.423 3.76-.423 1.46-.529 2.714-1.48 3.652-2.855.419-.528.731-1.163.94-1.691 1.775-4.23-.209-8.987-4.279-10.678l-.001-.001zm3.237 10.258c-.313.845-.835 1.584-1.357 2.22-1.253 1.373-3.028 2.114-4.908 2.114-.94 0-1.774-.211-2.61-.53-.312-.105-.625-.316-.94-.528-1.25-.74-2.19-1.903-2.713-3.277a6.647 6.647 0 010-5.286 6.82 6.82 0 012.514-3.156 6.802 6.802 0 013.854-1.18c.94 0 1.775.21 2.61.529 3.34 1.374 5.011 5.498 3.55 9.094z" fill="#FFE57E"/>
  <path d="M35.815 10.237c-.314.953.104 1.903 1.044 2.326.94.424 1.88.107 2.296-.951.417-1.057-.105-1.903-1.044-2.326-.627-.21-1.252-.21-1.67 0l-1.253-1.163 2.923-4.018 4.698 2.01-.626 1.373-3.655-1.585-1.46 2.008c.522-.21 1.252-.21 1.878.106 1.67.74 2.506 2.327 1.775 4.123-.626 1.693-2.506 2.538-4.49 1.693-1.88-.74-2.609-2.538-2.191-4.019l1.775.423z" fill="#FFE57E"/>
</svg>